#!OML:ASF \\sashay\E\Suitcase\Project 1\Capture day 1\Session 1\Male1.ASF
:FULLY-SPECIFIED
:DEGREES
550
root 0.716321 17.2574 -9.6735 8.81753 -2.32885 -4.18443
lowerback 6.93611 2.65829 1.15296
upperback -1.80389 3.76609 1.94772
thorax -5.82802 1.85443 0.934026
lowerneck -21.0352 -0.511147 -1.22958
upperneck 13.8578 0.0807044 -2.18235
head 7.71676 -0.253978 -0.518781
rclavicle -8.24956e-015 -3.18055e-015
rhumerus -64.737 -37.8642 -35.0895
rradius 9.83176
rwrist 17.595
rhand -12.0621 13.3652
rfingers 7.12502
rthumb 13.9972 -16.1436
lclavicle -8.24956e-015 -3.18055e-015
lhumerus -55.0871 16.0885 66.0651
lradius 24.5502
lwrist -9.10908
lhand 3.95174 42.2661
lfingers 7.12502
lthumb 29.3696 69.9657
rfemur 6.90672 -3.81057 25.2042
rtibia 27.9814
rfoot -2.33062 -5.7245
rtoes -4.51844
lfemur -33.5747 -5.06051 -18.0557
ltibia 29.4824
lfoot -7.81091 -1.59581
ltoes 21.1837
551
root 0.736362 17.2609 -9.5196 8.59235 -2.14747 -3.87502
lowerback 7.29034 2.53648 1.01707
upperback -1.91101 3.59659 1.85159
thorax -6.14271 1.77129 0.911172
lowerneck -21.1894 -0.375199 -0.692368
upperneck 14.1985 0.217971 -2.71641
head 7.859 -0.218834 -0.769134
rclavicle -1.96548e-014 -2.98177e-015
rhumerus -66.0109 -38.5404 -32.9992
rradius 10.1783
rwrist 18.8927
rhand -11.3772 13.2397
rfingers 7.12502
rthumb 14.6571 -16.2223
lclavicle -1.96548e-014 -2.98177e-015
lhumerus -54.7367 15.6797 66.3154
lradius 24.6739
lwrist -8.81267
lhand 3.6081 42.1617
lfingers 7.12502
lthumb 29.0415 69.9183
rfemur 5.54895 -4.03914 24.5227
rtibia 31.1595
rfoot 0.0035474 -5.78895
rtoes 1.09327
lfemur -33.0151 -5.16308 -18.5372
ltibia 29.8765
lfoot -8.2413 -2.14992
ltoes 24.0756
552
root 0.749641 17.2706 -9.35467 8.09118 -1.87342 -3.51649
lowerback 7.69672 2.44524 0.662187
upperback -1.97995 3.44517 1.77268
thorax -6.46179 1.70639 1.02677
lowerneck -20.6717 -0.286467 -0.582952
upperneck 13.9813 0.286662 -2.689
head 7.70015 -0.171145 -0.76546
rclavicle 6.65929e-015 -7.7526e-015
rhumerus -65.4214 -37.9894 -34.2179
rradius 10.7319
rwrist 17.6233
rhand -11.2228 12.9803
rfingers 7.12502
rthumb 14.8059 -16.4708
lclavicle 6.65929e-015 -7.7526e-015
lhumerus -54.4908 14.9592 66.7198
lradius 25.0424
lwrist -8.47592
lhand 3.69244 41.6975
lfingers 7.12502
lthumb 29.122 69.4402
rfemur 4.48747 -4.35622 23.8679
rtibia 34.2878
rfoot 2.43575 -6.43533
rtoes 3.92543
lfemur -31.8642 -5.15819 -19.1353
ltibia 30.1044
lfoot -9.32758 -2.90384
ltoes 22.0713
553
root 0.766617 17.2783 -9.19259 7.60706 -1.91158 -3.18261
lowerback 7.79847 2.44639 0.230615
upperback -1.82865 3.39758 1.71971
thorax -6.3811 1.69832 1.21789
lowerneck -20.7043 -0.399415 -0.989964
upperneck 14.4176 0.180837 -2.25142
head 7.84906 -0.204325 -0.569103
rclavicle 3.40419e-014 1.86858e-014
rhumerus -65.7897 -38.7264 -33.1384
rradius 10.5535
rwrist 18.3505
rhand -11.3242 13.1385
rfingers 7.12502
rthumb 14.7081 -16.3197
lclavicle 3.40419e-014 1.86858e-014
lhumerus -54.0074 14.7967 66.7764
lradius 25.3815
lwrist -8.55867
lhand 3.75855 42.1008
lfingers 7.12502
lthumb 29.1852 69.8325
rfemur 3.39461 -4.2401 23.1416
rtibia 37.2454
rfoot 5.10648 -6.44966
rtoes 6.53892
lfemur -30.7035 -4.95626 -19.7265
ltibia 30.1921
lfoot -9.95487 -3.06273
ltoes 21.8314
554
root 0.779346 17.2748 -9.03828 7.17077 -1.7194 -2.77934
lowerback 7.88637 2.36757 -0.219545
upperback -1.61643 3.24362 1.72931
thorax -6.22944 1.63885 1.50125
lowerneck -20.7619 -0.273984 -0.171327
upperneck 14.3853 0.309566 -3.29021
head 7.85307 -0.2041 -1.03294
rclavicle 6.53505e-015 -3.97569e-015
rhumerus -65.6502 -39.4289 -32.5051
rradius 10.5395
rwrist 19.3945
rhand -11.1675 12.8338
rfingers 7.12502
rthumb 14.8591 -16.6134
lclavicle 6.53505e-015 -3.97569e-015
lhumerus -53.1987 14.0122 67.6833
lradius 25.7997
lwrist -7.77124
lhand 3.33222 43.547
lfingers 7.12502
lthumb 28.778 71.3487
rfemur 2.13189 -4.375 22.4536
rtibia 40.1632
rfoot 7.97301 -5.83948
rtoes 6.67565
lfemur -29.7746 -4.84711 -20.3919
ltibia 30.1824
lfoot -10.405 -3.49891
ltoes 19.516
555
root 0.794615 17.3009 -8.87718 6.88402 -1.82782 -2.37233
lowerback 8.04974 2.33768 -0.73062
upperback -1.66663 3.14983 1.67536
thorax -6.39802 1.61102 1.73644
lowerneck -20.7219 -0.373383 -1.00583
upperneck 14.6675 0.258248 -2.41181
head 7.93719 -0.188118 -0.611679
rclavicle -3.35698e-014 -8.94531e-015
rhumerus -64.8127 -38.9083 -33.5229
rradius 10.7179
rwrist 18.6297
rhand -10.9378 13.5291
rfingers 7.12502
rthumb 15.0804 -15.9016
lclavicle -3.35698e-014 -8.94531e-015
lhumerus -52.9465 13.7186 67.84
lradius 26.2961
lwrist -7.78844
lhand 3.48772 42.9541
lfingers 7.12502
lthumb 28.9265 70.7304
rfemur 0.724939 -3.9888 21.8032
rtibia 43.0661
rfoot 10.1757 -5.57206
rtoes 7.14641
lfemur -28.7027 -4.55118 -21.0695
ltibia 30.0601
lfoot -10.9941 -3.56663
ltoes 18.9714
